# xmcd CD database file
#
# Track frame offsets:
#	150
#	25612
#	43537
#	62352
#	79575
#	100342
#	119175
#	129627
#	159540
#	180787
#	203887
#	221887
#	240412
#	261637
#
# Disc length: 3782 seconds
#
# Revision: 0
# Processed by: cddbd v1.5.1PL2 Copyright (c) Steve Scherf et al.
# Submitted via: CDex 1.51
#
DISCID=c00ec40e
DTITLE=kyo - ZOO
DYEAR=1998
DGENRE=Rock
TTITLE0=Goodmorning Mr.paranoid
TTITLE1=CRIME
TTITLE2=Baby.Butterfly.(Part2)
TTITLE3=Funny Boy
TTITLE4=BLUE
TTITLE5=door
TTITLE6=time
TTITLE7=風が強い夜
TTITLE8=brainRadio
TTITLE9=Loveletter
TTITLE10=LISTEN to ME
TTITLE11=赤イハナガヒトツ咲イタ
TTITLE12=Stand by me
TTITLE13=the Sun goes down
EXTD=YEAR: 1998
EXTT0=
EXTT1=
EXTT2=
EXTT3=
EXTT4=
EXTT5=
EXTT6=
EXTT7=
EXTT8=
EXTT9=
EXTT10=
EXTT11=
EXTT12=
EXTT13=
PLAYORDER=
